<svg width="27" height="27" viewBox="0 0 27 27" fill="none" xmlns="http://www.w3.org/2000/svg">
<path d="M8.10029 2.70001C5.86317 2.70001 4.04999 4.81545 4.04999 7.42499C4.04999 9.65924 5.37984 11.5317 7.16602 12.0231L6.49502 22.9526C6.4825 23.126 6.50609 23.3002 6.56431 23.464C6.62253 23.6278 6.71411 23.7778 6.83326 23.9044C6.95241 24.031 7.09653 24.1316 7.25653 24.1997C7.41652 24.2677 7.5889 24.3019 7.76276 24.2999H8.43781C9.18037 24.2999 9.75011 23.6938 9.70556 22.9526L9.03456 12.0231C10.8207 11.5303 12.1506 9.65924 12.1506 7.42499C12.1506 4.81545 10.3374 2.70001 8.10029 2.70001ZM21.7133 2.70001L20.5887 9.44999H19.7449L19.1819 2.70001H18.6189L18.0559 9.44999H17.2121L16.0875 2.70001H15.5245V11.475C15.5245 11.654 15.5956 11.8257 15.7222 11.9523C15.8488 12.0789 16.0205 12.15 16.1995 12.15H17.9574L17.2945 22.9526C17.2819 23.126 17.3055 23.3002 17.3638 23.464C17.422 23.6278 17.5136 23.7778 17.6327 23.9044C17.7519 24.031 17.896 24.1316 18.056 24.1997C18.216 24.2677 18.3883 24.3019 18.5622 24.2999H19.2373C19.9798 24.2999 20.5496 23.6938 20.505 22.9526L19.8421 12.15H21.5999C21.779 12.15 21.9507 12.0789 22.0773 11.9523C22.2039 11.8257 22.275 11.654 22.275 11.475V2.70001H21.712H21.7133Z" fill="#17272E"/>
</svg>
