<svg width="17" height="17" viewBox="0 0 17 17" fill="none" xmlns="http://www.w3.org/2000/svg">
<path d="M8.5 4.95834C8.31214 4.95834 8.13197 5.03297 7.99913 5.1658C7.86629 5.29864 7.79166 5.47881 7.79166 5.66667V8.50001C7.79166 8.68787 7.86629 8.86803 7.99913 9.00087C8.13197 9.13371 8.31214 9.20834 8.5 9.20834C8.68786 9.20834 8.86803 9.13371 9.00086 9.00087C9.1337 8.86803 9.20833 8.68787 9.20833 8.50001V5.66667C9.20833 5.47881 9.1337 5.29864 9.00086 5.1658C8.86803 5.03297 8.68786 4.95834 8.5 4.95834ZM8.5 10.625C8.3599 10.625 8.22295 10.6665 8.10647 10.7444C7.98998 10.8222 7.8992 10.9328 7.84558 11.0623C7.79197 11.1917 7.77794 11.3341 7.80527 11.4715C7.83261 11.6089 7.90007 11.7351 7.99913 11.8342C8.09819 11.9333 8.22441 12.0007 8.36181 12.0281C8.49921 12.0554 8.64163 12.0414 8.77107 11.9878C8.9005 11.9341 9.01112 11.8434 9.08896 11.7269C9.16679 11.6104 9.20833 11.4734 9.20833 11.3333C9.20833 11.1455 9.1337 10.9653 9.00086 10.8325C8.86803 10.6996 8.68786 10.625 8.5 10.625ZM15.3779 5.35501L11.645 1.62209C11.5093 1.49265 11.3296 1.41928 11.1421 1.41667H5.85791C5.67037 1.41928 5.49074 1.49265 5.355 1.62209L1.62208 5.35501C1.49264 5.49075 1.41927 5.67038 1.41666 5.85792V11.1421C1.41927 11.3296 1.49264 11.5093 1.62208 11.645L5.355 15.3779C5.49074 15.5074 5.67037 15.5807 5.85791 15.5833H11.1421C11.3296 15.5807 11.5093 15.5074 11.645 15.3779L15.3779 11.645C15.5074 11.5093 15.5807 11.3296 15.5833 11.1421V5.85792C15.5807 5.67038 15.5074 5.49075 15.3779 5.35501ZM14.1667 10.8446L10.8446 14.1667H6.15541L2.83333 10.8446V6.15542L6.15541 2.83334H10.8446L14.1667 6.15542V10.8446Z" fill="#CDCDCD"/>
</svg>
