<svg width="23" height="23" viewBox="0 0 23 23" fill="none" xmlns="http://www.w3.org/2000/svg">
<g clip-path="url(#clip0_136_2100)">
<path d="M16.4737 0.209875C16.339 0.0755134 16.1566 4.0421e-05 15.9663 0L7.03369 0C6.84343 4.0421e-05 6.66095 0.0755134 6.52625 0.209875L0.209875 6.52625C0.0755134 6.66095 4.0421e-05 6.84343 0 7.03369L0 15.9663C4.0421e-05 16.1566 0.0755134 16.339 0.209875 16.4737L6.52625 22.7901C6.66095 22.9245 6.84343 23 7.03369 23H15.9663C16.1566 23 16.339 22.9245 16.4737 22.7901L22.7901 16.4737C22.9245 16.339 23 16.1566 23 15.9663V7.03369C23 6.84343 22.9245 6.66095 22.7901 6.52625L16.4737 0.209875ZM11.5 5.75C12.2691 5.75 12.8714 6.41412 12.7937 7.18031L12.2906 12.2216C12.2737 12.4197 12.1831 12.6042 12.0367 12.7386C11.8903 12.873 11.6988 12.9476 11.5 12.9476C11.3012 12.9476 11.1097 12.873 10.9633 12.7386C10.8169 12.6042 10.7263 12.4197 10.7094 12.2216L10.2063 7.18031C10.1882 6.99952 10.2082 6.81695 10.265 6.64436C10.3217 6.47178 10.4141 6.31299 10.5359 6.17825C10.6578 6.0435 10.8066 5.93578 10.9726 5.86202C11.1387 5.78826 11.3183 5.7501 11.5 5.75ZM11.5029 14.375C11.8841 14.375 12.2498 14.5265 12.5193 14.796C12.7889 15.0656 12.9404 15.4313 12.9404 15.8125C12.9404 16.1937 12.7889 16.5594 12.5193 16.829C12.2498 17.0985 11.8841 17.25 11.5029 17.25C11.1216 17.25 10.756 17.0985 10.4864 16.829C10.2168 16.5594 10.0654 16.1937 10.0654 15.8125C10.0654 15.4313 10.2168 15.0656 10.4864 14.796C10.756 14.5265 11.1216 14.375 11.5029 14.375Z" fill="#17272E"/>
</g>
<defs>
<clipPath id="clip0_136_2100">
<rect width="23" height="23" fill="white"/>
</clipPath>
</defs>
</svg>
