<svg width="27" height="27" viewBox="0 0 27 27" fill="none" xmlns="http://www.w3.org/2000/svg">
<path d="M21.375 7.875C21.375 6.6375 20.3625 5.625 19.125 5.625H16.875C16.2562 5.625 15.75 6.13125 15.75 6.75C15.75 7.36875 16.2562 7.875 16.875 7.875H19.125V10.8562L15.21 15.75H11.25V11.25C11.25 10.6312 10.7438 10.125 10.125 10.125H6.75C4.26375 10.125 2.25 12.1387 2.25 14.625V16.875C2.25 17.4938 2.75625 18 3.375 18H4.5C4.5 19.8675 6.0075 21.375 7.875 21.375C9.7425 21.375 11.25 19.8675 11.25 18H15.21C15.8963 18 16.5375 17.685 16.965 17.1562L20.88 12.2625C21.2062 11.8575 21.375 11.3625 21.375 10.8562V7.875ZM7.875 19.125C7.25625 19.125 6.75 18.6188 6.75 18H9C9 18.6188 8.49375 19.125 7.875 19.125Z" fill="#17272E"/>
<path d="M6.75 6.75H10.125C10.7438 6.75 11.25 7.25625 11.25 7.875C11.25 8.49375 10.7438 9 10.125 9H6.75C6.13125 9 5.625 8.49375 5.625 7.875C5.625 7.25625 6.13125 6.75 6.75 6.75ZM21.375 14.625C19.5075 14.625 18 16.1325 18 18C18 19.8675 19.5075 21.375 21.375 21.375C23.2425 21.375 24.75 19.8675 24.75 18C24.75 16.1325 23.2425 14.625 21.375 14.625ZM21.375 19.125C20.7562 19.125 20.25 18.6188 20.25 18C20.25 17.3812 20.7562 16.875 21.375 16.875C21.9938 16.875 22.5 17.3812 22.5 18C22.5 18.6188 21.9938 19.125 21.375 19.125Z" fill="#17272E"/>
</svg>
