<svg width="17" height="17" viewBox="0 0 17 17" fill="none" xmlns="http://www.w3.org/2000/svg">
<path d="M3.88167 3.69183L2.125 7.79166V12.75H14.875V7.79166L13.1183 3.69183C13.0091 3.43705 12.8276 3.21991 12.5961 3.06731C12.3647 2.91471 12.0936 2.83336 11.8164 2.83333H5.185C4.90756 2.83308 4.63615 2.91431 4.40446 3.06692C4.17276 3.21954 3.99098 3.43683 3.88167 3.69183Z" stroke="#CDCDCD" stroke-width="1.41667" stroke-linecap="round" stroke-linejoin="round"/>
<path d="M14.875 12.75V13.1042C14.875 13.386 14.7631 13.6562 14.5638 13.8555C14.3645 14.0547 14.0943 14.1667 13.8125 14.1667C13.5307 14.1667 13.2605 14.0547 13.0612 13.8555C12.8619 13.6562 12.75 13.386 12.75 13.1042V12.75" stroke="#CDCDCD" stroke-width="1.41667" stroke-linecap="round" stroke-linejoin="round"/>
<path d="M12.0427 9.91667H12.0417" stroke="#CDCDCD" stroke-width="1.41667" stroke-linecap="round" stroke-linejoin="round"/>
<path d="M4.95934 9.91667H4.95834" stroke="#CDCDCD" stroke-width="1.41667" stroke-linecap="round" stroke-linejoin="round"/>
<path d="M2.125 12.75V13.1042C2.125 13.386 2.23694 13.6562 2.4362 13.8555C2.63546 14.0547 2.90571 14.1667 3.1875 14.1667C3.46929 14.1667 3.73954 14.0547 3.9388 13.8555C4.13806 13.6562 4.25 13.386 4.25 13.1042V12.75" stroke="#CDCDCD" stroke-width="1.41667" stroke-linecap="round" stroke-linejoin="round"/>
<path d="M2.125 7.79167H14.875" stroke="#CDCDCD" stroke-width="1.41667" stroke-linecap="round" stroke-linejoin="round"/>
</svg>
