<svg width="25" height="25" viewBox="0 0 25 25" fill="none" xmlns="http://www.w3.org/2000/svg">
<path d="M22.6191 12.5C22.6191 15.1837 21.553 17.7576 19.6553 19.6552C17.7576 21.5529 15.1838 22.619 12.5 22.619C9.81629 22.619 7.24247 21.5529 5.34478 19.6552C3.44709 17.7576 2.38098 15.1837 2.38098 12.5C2.38098 9.81626 3.44709 7.24244 5.34478 5.34475C7.24247 3.44706 9.81629 2.38095 12.5 2.38095C15.1838 2.38095 17.7576 3.44706 19.6553 5.34475C21.553 7.24244 22.6191 9.81626 22.6191 12.5ZM12.5 7.44047C12.3402 7.44057 12.1821 7.47414 12.036 7.53904C11.8899 7.60395 11.759 7.69873 11.6517 7.8173C11.5445 7.93586 11.4633 8.07558 11.4133 8.22744C11.3633 8.37931 11.3457 8.53995 11.3616 8.69903L11.8043 13.135C11.8192 13.3092 11.899 13.4716 12.0278 13.5899C12.1566 13.7082 12.3251 13.7738 12.5 13.7738C12.6749 13.7738 12.8435 13.7082 12.9723 13.5899C13.1011 13.4716 13.1808 13.3092 13.1957 13.135L13.6384 8.69903C13.6543 8.53995 13.6367 8.37931 13.5868 8.22744C13.5368 8.07558 13.4556 7.93586 13.3483 7.8173C13.2411 7.69873 13.1102 7.60395 12.9641 7.53904C12.818 7.47414 12.6599 7.44057 12.5 7.44047ZM12.5026 15.0298C12.1671 15.0298 11.8454 15.163 11.6082 15.4002C11.3709 15.6374 11.2377 15.9592 11.2377 16.2946C11.2377 16.6301 11.3709 16.9518 11.6082 17.189C11.8454 17.4263 12.1671 17.5595 12.5026 17.5595C12.838 17.5595 13.1598 17.4263 13.397 17.189C13.6342 16.9518 13.7674 16.6301 13.7674 16.2946C13.7674 15.9592 13.6342 15.6374 13.397 15.4002C13.1598 15.163 12.838 15.0298 12.5026 15.0298Z" fill="#DE3232"/>
</svg>
