<svg width="25" height="25" viewBox="0 0 25 25" fill="none" xmlns="http://www.w3.org/2000/svg">
<path fill-rule="evenodd" clip-rule="evenodd" d="M2 12.5C2 9.71523 3.10625 7.04451 5.07538 5.07538C7.04451 3.10625 9.71523 2 12.5 2C15.2848 2 17.9555 3.10625 19.9246 5.07538C21.8938 7.04451 23 9.71523 23 12.5C23 15.2848 21.8938 17.9555 19.9246 19.9246C17.9555 21.8938 15.2848 23 12.5 23C9.71523 23 7.04451 21.8938 5.07538 19.9246C3.10625 17.9555 2 15.2848 2 12.5H2ZM11.9008 16.994L17.946 9.4368L16.854 8.5632L11.6992 15.0046L8.048 11.9624L7.152 13.0376L11.9008 16.9954V16.994Z" fill="#92D251"/>
</svg>
