<svg width="7" height="11" viewBox="0 0 7 11" fill="none" xmlns="http://www.w3.org/2000/svg">
<path d="M2.05727 0.570833L6.62082 5.12083C6.67498 5.175 6.71326 5.23368 6.73565 5.29687C6.7584 5.36007 6.76977 5.42778 6.76977 5.5C6.76977 5.57222 6.7584 5.63993 6.73565 5.70312C6.71326 5.76632 6.67498 5.825 6.62082 5.87917L2.05728 10.4427C1.93089 10.5691 1.7729 10.6323 1.58332 10.6323C1.39373 10.6323 1.23123 10.5646 1.09582 10.4292C0.960401 10.2938 0.892693 10.1358 0.892693 9.95521C0.892692 9.77465 0.960401 9.61667 1.09582 9.48125L5.07707 5.5L1.09582 1.51875C0.969428 1.39236 0.906233 1.23672 0.906233 1.05183C0.906233 0.866583 0.973942 0.70625 1.10936 0.570833C1.24477 0.435417 1.40276 0.367708 1.58332 0.367708C1.76387 0.367708 1.92186 0.435417 2.05727 0.570833Z" fill="#6C6C6C"/>
</svg>
