<svg width="17" height="17" viewBox="0 0 17 17" fill="none" xmlns="http://www.w3.org/2000/svg">
<path d="M8.5 9.20833C9.4393 9.20833 10.3401 8.83519 11.0043 8.171C11.6685 7.50681 12.0417 6.60598 12.0417 5.66667C12.0417 4.72736 11.6685 3.82652 11.0043 3.16233C10.3401 2.49814 9.4393 2.125 8.5 2.125C7.56069 2.125 6.65985 2.49814 5.99566 3.16233C5.33147 3.82652 4.95833 4.72736 4.95833 5.66667C4.95833 6.60598 5.33147 7.50681 5.99566 8.171C6.65985 8.83519 7.56069 9.20833 8.5 9.20833Z" stroke="#CDCDCD" stroke-width="1.58333" stroke-linecap="round" stroke-linejoin="round"/>
<path d="M14.1667 14.875C14.1667 13.3721 13.5696 11.9308 12.5069 10.8681C11.4442 9.80537 10.0029 9.20834 8.5 9.20834C6.9971 9.20834 5.55576 9.80537 4.49306 10.8681C3.43035 11.9308 2.83333 13.3721 2.83333 14.875M14.1667 14.875C14.1667 13.3721 13.5696 11.9308 12.5069 10.8681C11.4442 9.80537 10.0029 9.20834 8.5 9.20834C6.9971 9.20834 5.55576 9.80537 4.49306 10.8681C3.43035 11.9308 2.83333 13.3721 2.83333 14.875H14.1667Z" stroke="#CDCDCD" stroke-width="1.58333" stroke-linecap="round" stroke-linejoin="round"/>
</svg>
