<svg width="25" height="25" viewBox="0 0 25 25" fill="none" xmlns="http://www.w3.org/2000/svg">
<path d="M21.0521 8.14583L13.0312 12.7917C12.7083 12.9792 12.3021 12.9792 11.9687 12.7917L3.9479 8.14583C3.37498 7.8125 3.22915 7.03125 3.66665 6.54167C3.96873 6.19792 4.31248 5.91667 4.67706 5.71875L10.3229 2.59375C11.5312 1.91667 13.4896 1.91667 14.6979 2.59375L20.3437 5.71875C20.7083 5.91667 21.0521 6.20833 21.3541 6.54167C21.7708 7.03125 21.625 7.8125 21.0521 8.14583Z" fill="#17272E"/>
<path d="M11.9062 14.7292V21.8333C11.9062 22.625 11.1041 23.1458 10.3958 22.8021C8.24996 21.75 4.63538 19.7813 4.63538 19.7813C3.36454 19.0625 2.32288 17.25 2.32288 15.7604V10.3854C2.32288 9.56251 3.18746 9.04167 3.89579 9.44792L11.3854 13.7917C11.6979 13.9896 11.9062 14.3438 11.9062 14.7292Z" fill="#17272E"/>
<path d="M13.0938 14.7292V21.8333C13.0938 22.625 13.8958 23.1458 14.6042 22.8021C16.75 21.75 20.3646 19.7813 20.3646 19.7813C21.6354 19.0625 22.6771 17.25 22.6771 15.7604V10.3854C22.6771 9.56251 21.8125 9.04167 21.1042 9.44792L13.6146 13.7917C13.3021 13.9896 13.0938 14.3438 13.0938 14.7292Z" fill="#17272E"/>
</svg>
